<mxfile host="app.diagrams.net" modified="2021-07-19T10:01:14.587Z" agent="5.0 (Macintosh; Intel Mac OS X 10_15_7) AppleWebKit/537.36 (KHTML, like Gecko) Chrome/91.0.4472.114 Safari/537.36" etag="QVRPKhr_Cu2XWqCtHjq6" version="14.9.0" type="github">
  <diagram id="M7w5pq49-lNZlmRb2Dbw" name="Page-1">
    <mxGraphModel dx="946" dy="589" grid="1" gridSize="10" guides="1" tooltips="1" connect="1" arrows="1" fold="1" page="1" pageScale="1" pageWidth="827" pageHeight="1169" math="0" shadow="0">
      <root>
        <mxCell id="0" />
        <mxCell id="1" parent="0" />
        <mxCell id="aofIyYApxBmDLa7dMIoh-1" value="" style="shape=actor;whiteSpace=wrap;html=1;" vertex="1" parent="1">
          <mxGeometry x="70" y="100" width="50" height="60" as="geometry" />
        </mxCell>
        <mxCell id="aofIyYApxBmDLa7dMIoh-2" value="" style="shape=actor;whiteSpace=wrap;html=1;" vertex="1" parent="1">
          <mxGeometry x="70" y="260" width="50" height="60" as="geometry" />
        </mxCell>
        <mxCell id="aofIyYApxBmDLa7dMIoh-3" value="" style="shape=actor;whiteSpace=wrap;html=1;" vertex="1" parent="1">
          <mxGeometry x="70" y="180" width="50" height="60" as="geometry" />
        </mxCell>
        <mxCell id="aofIyYApxBmDLa7dMIoh-4" value="" style="verticalLabelPosition=bottom;verticalAlign=top;html=1;shape=mxgraph.basic.rect;fillColor2=none;strokeWidth=1;size=20;indent=5;fillColor=#60a917;strokeColor=#2D7600;fontColor=#ffffff;" vertex="1" parent="1">
          <mxGeometry x="230" y="100" width="120" height="220" as="geometry" />
        </mxCell>
        <mxCell id="aofIyYApxBmDLa7dMIoh-5" value="" style="verticalLabelPosition=bottom;verticalAlign=top;html=1;shape=mxgraph.basic.rect;fillColor2=none;strokeWidth=1;size=20;indent=5;fillColor=#60a917;strokeColor=#2D7600;fontColor=#ffffff;" vertex="1" parent="1">
          <mxGeometry x="410" y="100" width="150" height="240" as="geometry" />
        </mxCell>
        <mxCell id="aofIyYApxBmDLa7dMIoh-7" value="" style="verticalLabelPosition=bottom;verticalAlign=top;html=1;shape=mxgraph.basic.rect;fillColor2=none;strokeWidth=1;size=20;indent=5;fillColor=#008a00;strokeColor=#005700;fontColor=#ffffff;" vertex="1" parent="1">
          <mxGeometry x="640" y="60" width="120" height="100" as="geometry" />
        </mxCell>
        <mxCell id="aofIyYApxBmDLa7dMIoh-8" value="" style="verticalLabelPosition=bottom;verticalAlign=top;html=1;shape=mxgraph.basic.rect;fillColor2=none;strokeWidth=1;size=20;indent=5;fillColor=#008a00;strokeColor=#005700;fontColor=#ffffff;" vertex="1" parent="1">
          <mxGeometry x="640" y="270" width="120" height="100" as="geometry" />
        </mxCell>
        <mxCell id="aofIyYApxBmDLa7dMIoh-9" value="" style="strokeWidth=2;html=1;shape=mxgraph.flowchart.annotation_1;align=left;pointerEvents=1;rotation=-180;" vertex="1" parent="1">
          <mxGeometry x="130" y="150" width="50" height="160" as="geometry" />
        </mxCell>
        <mxCell id="aofIyYApxBmDLa7dMIoh-13" value="" style="line;strokeWidth=1;fillColor=none;align=left;verticalAlign=middle;spacingTop=-1;spacingLeft=3;spacingRight=3;rotatable=0;labelPosition=right;points=[];portConstraint=eastwest;" vertex="1" parent="1">
          <mxGeometry x="130" y="226" width="50" height="8" as="geometry" />
        </mxCell>
      </root>
    </mxGraphModel>
  </diagram>
</mxfile>
